<mxfile host="app.diagrams.net" modified="2024-07-22T22:38:34.838Z" agent="Mozilla/5.0 (Macintosh; Intel Mac OS X 10_15_7) AppleWebKit/537.36 (KHTML, like Gecko) Chrome/126.0.0.0 Safari/537.36" etag="Qtaslx6aaqE1ESHuVLxw" version="24.7.1" type="device">
  <diagram name="Page-1" id="jIe_QgFTB2dRnkDwUdxp">
    <mxGraphModel dx="2074" dy="1122" grid="1" gridSize="10" guides="1" tooltips="1" connect="1" arrows="1" fold="1" page="1" pageScale="1" pageWidth="850" pageHeight="1100" math="0" shadow="0">
      <root>
        <mxCell id="0" />
        <mxCell id="1" parent="0" />
        <mxCell id="pi-JgDoY6IfNiMSxrpEc-32" value="" style="whiteSpace=wrap;html=1;aspect=fixed;movable=1;resizable=1;rotatable=1;deletable=1;editable=1;locked=0;connectable=1;" parent="1" vertex="1">
          <mxGeometry x="350" y="280" width="230" height="230" as="geometry" />
        </mxCell>
        <mxCell id="pi-JgDoY6IfNiMSxrpEc-14" value="" style="whiteSpace=wrap;html=1;aspect=fixed;movable=0;resizable=0;rotatable=0;deletable=0;editable=0;locked=1;connectable=0;" parent="1" vertex="1">
          <mxGeometry x="180" y="150" width="570" height="570" as="geometry" />
        </mxCell>
        <mxCell id="pi-JgDoY6IfNiMSxrpEc-2" value="Rasberry Pie" style="text;html=1;align=center;verticalAlign=middle;resizable=0;points=[];autosize=1;strokeColor=none;fillColor=none;" parent="1" vertex="1">
          <mxGeometry x="420" y="280" width="90" height="30" as="geometry" />
        </mxCell>
        <mxCell id="pi-JgDoY6IfNiMSxrpEc-4" value="Cooperator" style="shape=umlActor;verticalLabelPosition=bottom;verticalAlign=top;html=1;outlineConnect=0;" parent="1" vertex="1">
          <mxGeometry x="10" y="380" width="50" height="60" as="geometry" />
        </mxCell>
        <mxCell id="pi-JgDoY6IfNiMSxrpEc-9" value="Speaks Prompt" style="text;html=1;align=center;verticalAlign=middle;resizable=0;points=[];autosize=1;strokeColor=none;fillColor=none;" parent="1" vertex="1">
          <mxGeometry x="75" y="380" width="110" height="30" as="geometry" />
        </mxCell>
        <mxCell id="pi-JgDoY6IfNiMSxrpEc-44" style="edgeStyle=orthogonalEdgeStyle;rounded=0;orthogonalLoop=1;jettySize=auto;html=1;" parent="1" source="pi-JgDoY6IfNiMSxrpEc-17" target="pi-JgDoY6IfNiMSxrpEc-42" edge="1">
          <mxGeometry relative="1" as="geometry" />
        </mxCell>
        <mxCell id="pi-JgDoY6IfNiMSxrpEc-17" value="" style="verticalLabelPosition=bottom;dashed=0;shadow=0;html=1;align=center;verticalAlign=top;shape=mxgraph.cabinets.motor_cb_1_32a;" parent="1" vertex="1">
          <mxGeometry x="180" y="630" width="90" height="90" as="geometry" />
        </mxCell>
        <mxCell id="pi-JgDoY6IfNiMSxrpEc-18" value="Motor" style="text;html=1;align=center;verticalAlign=middle;whiteSpace=wrap;rounded=0;" parent="1" vertex="1">
          <mxGeometry x="200" y="600" width="60" height="30" as="geometry" />
        </mxCell>
        <mxCell id="pi-JgDoY6IfNiMSxrpEc-43" style="edgeStyle=orthogonalEdgeStyle;rounded=0;orthogonalLoop=1;jettySize=auto;html=1;" parent="1" source="pi-JgDoY6IfNiMSxrpEc-20" target="pi-JgDoY6IfNiMSxrpEc-42" edge="1">
          <mxGeometry relative="1" as="geometry" />
        </mxCell>
        <mxCell id="pi-JgDoY6IfNiMSxrpEc-20" value="" style="verticalLabelPosition=bottom;dashed=0;shadow=0;html=1;align=center;verticalAlign=top;shape=mxgraph.cabinets.motor_cb_1_32a;" parent="1" vertex="1">
          <mxGeometry x="660" y="630" width="90" height="90" as="geometry" />
        </mxCell>
        <mxCell id="pi-JgDoY6IfNiMSxrpEc-21" value="Motor" style="text;html=1;align=center;verticalAlign=middle;whiteSpace=wrap;rounded=0;" parent="1" vertex="1">
          <mxGeometry x="675" y="600" width="60" height="30" as="geometry" />
        </mxCell>
        <mxCell id="pi-JgDoY6IfNiMSxrpEc-23" value="" style="verticalLabelPosition=bottom;dashed=0;shadow=0;html=1;align=center;verticalAlign=top;shape=mxgraph.cabinets.motor_cb_1_32a;" parent="1" vertex="1">
          <mxGeometry x="660" y="150" width="90" height="90" as="geometry" />
        </mxCell>
        <mxCell id="pi-JgDoY6IfNiMSxrpEc-45" value="" style="edgeStyle=orthogonalEdgeStyle;rounded=0;orthogonalLoop=1;jettySize=auto;html=1;" parent="1" source="pi-JgDoY6IfNiMSxrpEc-24" target="pi-JgDoY6IfNiMSxrpEc-23" edge="1">
          <mxGeometry relative="1" as="geometry" />
        </mxCell>
        <mxCell id="pi-JgDoY6IfNiMSxrpEc-46" style="edgeStyle=orthogonalEdgeStyle;rounded=0;orthogonalLoop=1;jettySize=auto;html=1;" parent="1" source="pi-JgDoY6IfNiMSxrpEc-24" target="pi-JgDoY6IfNiMSxrpEc-42" edge="1">
          <mxGeometry relative="1" as="geometry" />
        </mxCell>
        <mxCell id="pi-JgDoY6IfNiMSxrpEc-24" value="Motor" style="text;html=1;align=center;verticalAlign=middle;whiteSpace=wrap;rounded=0;" parent="1" vertex="1">
          <mxGeometry x="655" y="265" width="60" height="30" as="geometry" />
        </mxCell>
        <mxCell id="pi-JgDoY6IfNiMSxrpEc-33" value="" style="edgeStyle=orthogonalEdgeStyle;rounded=0;orthogonalLoop=1;jettySize=auto;html=1;" parent="1" source="pi-JgDoY6IfNiMSxrpEc-34" target="pi-JgDoY6IfNiMSxrpEc-35" edge="1">
          <mxGeometry relative="1" as="geometry" />
        </mxCell>
        <mxCell id="pi-JgDoY6IfNiMSxrpEc-48" style="edgeStyle=orthogonalEdgeStyle;rounded=0;orthogonalLoop=1;jettySize=auto;html=1;" parent="1" source="pi-JgDoY6IfNiMSxrpEc-34" target="pi-JgDoY6IfNiMSxrpEc-9" edge="1">
          <mxGeometry relative="1" as="geometry" />
        </mxCell>
        <mxCell id="pi-JgDoY6IfNiMSxrpEc-34" value="Audio Input" style="whiteSpace=wrap;html=1;aspect=fixed;movable=1;resizable=1;rotatable=1;deletable=1;editable=1;locked=0;connectable=1;" parent="1" vertex="1">
          <mxGeometry x="370" y="300" width="80" height="80" as="geometry" />
        </mxCell>
        <mxCell id="pi-JgDoY6IfNiMSxrpEc-35" value="" style="sketch=0;points=[[0,0,0],[0.25,0,0],[0.5,0,0],[0.75,0,0],[1,0,0],[0,1,0],[0.25,1,0],[0.5,1,0],[0.75,1,0],[1,1,0],[0,0.25,0],[0,0.5,0],[0,0.75,0],[1,0.25,0],[1,0.5,0],[1,0.75,0]];outlineConnect=0;fontColor=#232F3E;fillColor=#01A88D;strokeColor=#ffffff;dashed=0;verticalLabelPosition=bottom;verticalAlign=top;align=center;html=1;fontSize=12;fontStyle=0;aspect=fixed;shape=mxgraph.aws4.resourceIcon;resIcon=mxgraph.aws4.augmented_ai;" parent="1" vertex="1">
          <mxGeometry x="500" y="300" width="70" height="70" as="geometry" />
        </mxCell>
        <mxCell id="pi-JgDoY6IfNiMSxrpEc-36" style="edgeStyle=orthogonalEdgeStyle;rounded=0;orthogonalLoop=1;jettySize=auto;html=1;" parent="1" source="pi-JgDoY6IfNiMSxrpEc-37" target="pi-JgDoY6IfNiMSxrpEc-38" edge="1">
          <mxGeometry relative="1" as="geometry" />
        </mxCell>
        <mxCell id="pi-JgDoY6IfNiMSxrpEc-37" value="LLM" style="text;html=1;align=center;verticalAlign=middle;whiteSpace=wrap;rounded=0;" parent="1" vertex="1">
          <mxGeometry x="505" y="380" width="60" height="30" as="geometry" />
        </mxCell>
        <mxCell id="pi-JgDoY6IfNiMSxrpEc-49" style="edgeStyle=orthogonalEdgeStyle;rounded=0;orthogonalLoop=1;jettySize=auto;html=1;" parent="1" source="pi-JgDoY6IfNiMSxrpEc-38" target="pi-JgDoY6IfNiMSxrpEc-4" edge="1">
          <mxGeometry relative="1" as="geometry" />
        </mxCell>
        <mxCell id="pi-JgDoY6IfNiMSxrpEc-38" value="Audio Output" style="whiteSpace=wrap;html=1;aspect=fixed;" parent="1" vertex="1">
          <mxGeometry x="380" y="430" width="80" height="80" as="geometry" />
        </mxCell>
        <mxCell id="pi-JgDoY6IfNiMSxrpEc-40" value="" style="verticalLabelPosition=bottom;dashed=0;shadow=0;html=1;align=center;verticalAlign=top;shape=mxgraph.cabinets.motor_cb_1_32a;" parent="1" vertex="1">
          <mxGeometry x="180" y="150" width="90" height="90" as="geometry" />
        </mxCell>
        <mxCell id="pi-JgDoY6IfNiMSxrpEc-47" style="edgeStyle=orthogonalEdgeStyle;rounded=0;orthogonalLoop=1;jettySize=auto;html=1;" parent="1" source="pi-JgDoY6IfNiMSxrpEc-41" target="pi-JgDoY6IfNiMSxrpEc-42" edge="1">
          <mxGeometry relative="1" as="geometry" />
        </mxCell>
        <mxCell id="pi-JgDoY6IfNiMSxrpEc-41" value="Motor" style="text;html=1;align=center;verticalAlign=middle;whiteSpace=wrap;rounded=0;" parent="1" vertex="1">
          <mxGeometry x="215" y="250" width="60" height="30" as="geometry" />
        </mxCell>
        <mxCell id="pi-JgDoY6IfNiMSxrpEc-42" value="" style="pointerEvents=1;shadow=0;dashed=0;html=1;strokeColor=none;fillColor=#4495D1;labelPosition=center;verticalLabelPosition=bottom;verticalAlign=top;align=center;outlineConnect=0;shape=mxgraph.veeam.cpu;" parent="1" vertex="1">
          <mxGeometry x="500" y="448" width="44.8" height="44.8" as="geometry" />
        </mxCell>
        <mxCell id="__3FkkUGiearpIQABJxI-7" style="edgeStyle=orthogonalEdgeStyle;rounded=0;orthogonalLoop=1;jettySize=auto;html=1;" edge="1" parent="1" source="__3FkkUGiearpIQABJxI-1" target="__3FkkUGiearpIQABJxI-8">
          <mxGeometry relative="1" as="geometry">
            <mxPoint x="200" y="505" as="targetPoint" />
          </mxGeometry>
        </mxCell>
        <mxCell id="__3FkkUGiearpIQABJxI-1" value="" style="html=1;verticalLabelPosition=bottom;align=center;labelBackgroundColor=#ffffff;verticalAlign=top;strokeWidth=2;strokeColor=#0080F0;shadow=0;dashed=0;shape=mxgraph.ios7.icons.camera;" vertex="1" parent="1">
          <mxGeometry x="290" y="480" width="50" height="50" as="geometry" />
        </mxCell>
        <mxCell id="__3FkkUGiearpIQABJxI-4" style="edgeStyle=orthogonalEdgeStyle;rounded=0;orthogonalLoop=1;jettySize=auto;html=1;" edge="1" parent="1" source="__3FkkUGiearpIQABJxI-3" target="pi-JgDoY6IfNiMSxrpEc-35">
          <mxGeometry relative="1" as="geometry" />
        </mxCell>
        <mxCell id="__3FkkUGiearpIQABJxI-3" value="Computer vision" style="text;html=1;align=center;verticalAlign=middle;whiteSpace=wrap;rounded=0;" vertex="1" parent="1">
          <mxGeometry x="290" y="540" width="60" height="30" as="geometry" />
        </mxCell>
        <mxCell id="__3FkkUGiearpIQABJxI-6" value="Lidar" style="ellipse;shape=cloud;whiteSpace=wrap;html=1;" vertex="1" parent="1">
          <mxGeometry x="565" y="430" width="120" height="80" as="geometry" />
        </mxCell>
        <mxCell id="__3FkkUGiearpIQABJxI-8" value="Sensory actuator" style="text;html=1;align=center;verticalAlign=middle;whiteSpace=wrap;rounded=0;" vertex="1" parent="1">
          <mxGeometry x="170" y="490" width="60" height="30" as="geometry" />
        </mxCell>
        <UserObject label="&lt;b style=&quot;font-weight:normal;&quot; id=&quot;docs-internal-guid-92284858-7fff-34c6-9a91-c9fb36644fc4&quot;&gt;&lt;span style=&quot;font-size:11pt;font-family:Arial,sans-serif;color:#000000;background-color:transparent;font-weight:400;font-style:normal;font-variant:normal;text-decoration:none;vertical-align:baseline;white-space:pre;white-space:pre-wrap;&quot;&gt;&lt;span style=&quot;border:none;display:inline-block;overflow:hidden;width:180px;height:180px;&quot;&gt;&lt;img src=&quot;https://lh7-us.googleusercontent.com/docsz/AD_4nXcubnTv8OYD4C2Q6LoCns9EASaeVS2NrV79uECHgDyoNrKY2I6_paFjjw7QtiJM4t7h8ezYFo7h-gh6Ggo8iNnPIaTe_Ch9fZAnizTdhInt8HHXObChsG9RGGenhPohbe0CD35jZ0j5BoeQLQ_3Oh8C-Go1?key=SBW7-KI0834AEUuxLm8w1g&quot; width=&quot;180&quot; height=&quot;180&quot; style=&quot;margin-left:0px;margin-top:0px;&quot;&gt;&lt;/span&gt;&lt;/span&gt;&lt;/b&gt;" link="&lt;b style=&quot;font-weight:normal;&quot; id=&quot;docs-internal-guid-92284858-7fff-34c6-9a91-c9fb36644fc4&quot;&gt;&lt;span style=&quot;font-size:11pt;font-family:Arial,sans-serif;color:#000000;background-color:transparent;font-weight:400;font-style:normal;font-variant:normal;text-decoration:none;vertical-align:baseline;white-space:pre;white-space:pre-wrap;&quot;&gt;&lt;span style=&quot;border:none;display:inline-block;overflow:hidden;width:180px;height:180px;&quot;&gt;&lt;img src=&quot;https://lh7-us.googleusercontent.com/docsz/AD_4nXcubnTv8OYD4C2Q6LoCns9EASaeVS2NrV79uECHgDyoNrKY2I6_paFjjw7QtiJM4t7h8ezYFo7h-gh6Ggo8iNnPIaTe_Ch9fZAnizTdhInt8HHXObChsG9RGGenhPohbe0CD35jZ0j5BoeQLQ_3Oh8C-Go1?key=SBW7-KI0834AEUuxLm8w1g&quot; width=&quot;180&quot; height=&quot;180&quot; style=&quot;margin-left:0px;margin-top:0px;&quot;&gt;&lt;/span&gt;&lt;/span&gt;&lt;/b&gt;" id="__3FkkUGiearpIQABJxI-9">
          <mxCell style="text;whiteSpace=wrap;html=1;" vertex="1" parent="1">
            <mxGeometry x="340" y="770" width="210" height="210" as="geometry" />
          </mxCell>
        </UserObject>
        <mxCell id="__3FkkUGiearpIQABJxI-10" value="The Goal ^" style="text;html=1;align=center;verticalAlign=middle;resizable=0;points=[];autosize=1;strokeColor=none;fillColor=none;" vertex="1" parent="1">
          <mxGeometry x="390" y="1008" width="80" height="30" as="geometry" />
        </mxCell>
        <mxCell id="__3FkkUGiearpIQABJxI-11" value="Quad Copter Design" style="text;html=1;align=center;verticalAlign=middle;resizable=0;points=[];autosize=1;strokeColor=none;fillColor=none;" vertex="1" parent="1">
          <mxGeometry x="365" y="110" width="130" height="30" as="geometry" />
        </mxCell>
      </root>
    </mxGraphModel>
  </diagram>
</mxfile>
